<?xml version="1.0" standalone="no"?><!DOCTYPE svg PUBLIC "-//W3C//DTD SVG 1.1//EN" "http://www.w3.org/Graphics/SVG/1.1/DTD/svg11.dtd"><svg t="1740215649202" class="icon" viewBox="0 0 1024 1024" version="1.1" xmlns="http://www.w3.org/2000/svg" p-id="1463" xmlns:xlink="http://www.w3.org/1999/xlink" width="200" height="200"><path d="M651.956565 599.850837l-88.714508-88.74316 88.840374-88.87005c14.007015-14.012132 13.976316-36.733623 0-50.746778-14.007015-14.012132-36.658921-14.043854-50.729381 0l-88.839351 88.87005-88.682785-88.74316c-14.007015-14.013155-36.785811-13.980409-50.761104 0-14.008039 14.012132-14.038738 36.733623 0 50.777477l88.713484 88.74316-88.840374 88.87005c-13.976316 13.980409-14.038738 36.766368-0.030699 50.777477 13.975293 13.980409 36.721343 14.013155 50.761104-0.030699l88.776929-88.807628 88.714508 88.744183c13.944594 13.948687 36.721343 14.043854 50.792826-0.031722C665.931858 636.617206 665.963581 613.894691 651.956565 599.850837L651.956565 599.850837 651.956565 599.850837M829.351811 193.688327c-174.71316-174.773536-459.121676-174.835957-633.899304 0-174.777629 174.835957-174.715207 459.33964 0 634.113175 174.777629 174.835957 459.121676 174.899402 633.931027 0.030699C1004.161163 652.995221 1004.161163 368.556007 829.351811 193.688327L829.351811 193.688327 829.351811 193.688327M235.108692 788.162714c-152.946414-152.99758-152.914692-401.840064-0.031722-554.805922 152.978137-153.028279 401.704988-152.99758 554.651402-0.030699 152.946414 152.996556 152.977114 401.838018 0 554.868343C636.876102 941.160293 388.023384 941.160293 235.108692 788.162714L235.108692 788.162714 235.108692 788.162714M235.108692 788.162714 235.108692 788.162714z" p-id="1464"></path></svg>